<svg id="Layer_1" enable-background="new 0 0 464 464" height="512" viewBox="0 0 464 464" width="512" xmlns="http://www.w3.org/2000/svg"><path d="m396.1 401h2.9v50c0 4.42-3.58 8-8 8h-316c-4.42 0-8-3.58-8-8v-50h.9c-41.95-41.98-67.9-99.96-67.9-164 0-128.13 103.87-232 232-232s232 103.87 232 232c0 64.04-25.95 122.02-67.9 164z" fill="#e8f8fc"/><path d="m399 401v50c0 4.418-3.582 8-8 8h-316c-4.418 0-8-3.582-8-8v-50z" fill="#999"/><path d="m236.221 5.038c18.045.322 20.916 26.099 3.358 30.276-164.002 39.015-231.789 233.391-131.759 365.686h-39.92c-42.002-42.032-67.964-100.103-67.9-164.237.129-129.117 106.774-234.035 236.221-231.725z" fill="#f1fafc"/><path d="m98.988 459h-23.988c-4.418 0-8-3.582-8-8v-50h39.5c0 .103-.001 50.029.001 50.132.079 4.291-3.221 7.868-7.513 7.868z" fill="#b2b2b2"/><path d="m418 212c0 27.219-27.774 45.435-52.51 35.12-8.86 33.78-30.2 62.49-58.79 80.93l16.3 72.95h-182l16.3-72.95c-28.59-18.44-49.93-47.15-58.79-80.93-24.71 10.304-52.51-7.877-52.51-35.12 0-27.088 27.56-45.434 52.51-35.13 15.54-59.2 69.41-102.87 133.49-102.87s117.95 43.67 133.49 102.87c24.956-10.306 52.51 8.055 52.51 35.13z" fill="#ffaa64"/><path d="m313.38 357.95c-48.563 35.634-114.807 35.187-162.76 0l6.68-29.9c45.382 29.279 103.999 29.291 149.4 0z" fill="#faa157"/><path d="m327.77 189.92c0 25.535-17.836 46.92-41.728 52.375-4.561 1.041-7.812 5.072-7.812 9.751v11.91c0 25.611-20.953 47.224-46.562 47.044-25.396-.179-45.898-20.809-45.898-46.229v-12.724c0-4.679-3.25-8.71-7.812-9.751-23.892-5.455-41.728-26.839-41.728-52.375 0-50.995 64.358-72.929 95.77-33.44 31.377-39.446 95.77-17.597 95.77 33.439z" fill="#ffebd2"/><path d="m418 212c0 27.219-27.775 45.436-52.51 35.12 6.012-22.923 6.019-47.278 0-70.25 24.951-10.303 52.51 8.05 52.51 35.13z" fill="#ffebd2"/><path d="m98.51 176.87c-6.007 22.925-6.024 47.28 0 70.25-24.71 10.305-52.51-7.877-52.51-35.12 0-27.088 27.559-45.434 52.51-35.13z" fill="#ffdfba"/><path d="m98.51 176.87c-1.51 5.75-2.65 11.64-3.41 17.66-14.218 3.239-24.44 13.94-28.082 26.71-2.919 10.235-17.512 9.966-19.982-.387-7.251-30.399 23.08-55.709 51.474-43.983z" fill="#fff3e4"/><path d="m199 216c-8.836 0-16-7.163-16-16v-6c0-8.837 7.164-16 16-16s16 7.163 16 16v6c0 8.837-7.164 16-16 16z" fill="#2c2c33"/><path d="m265 216c-8.836 0-16-7.163-16-16v-6c0-8.837 7.164-16 16-16s16 7.163 16 16v6c0 8.837-7.164 16-16 16z" fill="#2c2c33"/><path d="m145.061 277.24c8.085 16.3-14.596 29.892-25.212 15.115-42.237-58.792-31.089-137.623 20.308-183.357 13.469-11.985 32.448 6.368 21.126 20.398-33.48 41.484-40.409 99.08-16.222 147.844z" fill="#ffbd7b"/><path d="m381.98 249.95c-5.844.264-11.316-.672-16.49-2.83 10.188-38.846.105-67.229.19-70.33 4.961-2.016 10.211-2.925 15.39-2.78 9.325 24.244 9.889 50.817.91 75.94z" fill="#ffdfba"/></svg>